# xmcd
#
# Track frame offsets: 
#        150
#        31025
#        60225
#        89175
#        106950
#        128800
#        156525
#        182575
#        203725
#        226725
#        241650
#        265750
#
# Disc length: 3713 seconds
#
# Revision: 1
# Processed by: cddbd v1.5.2PL0 Copyright (c) Steve Scherf et al.
# Submitted via: ExactAudioCopy v0.99pb5
#
DISCID=930e7f0c
DTITLE=Greg Reitan - Antibes
DYEAR=2009
DGENRE=Sunnyside
TTITLE0=Antibes
TTITLE1=For Heaven's Sake
TTITLE2=Waltz For Meredith
TTITLE3=One Step Ahead
TTITLE4=Fall
TTITLE5=Time Remembers One Time Once
TTITLE6=Sympathy
TTITLE7=September
TTITLE8=Re: Person I Knew
TTITLE9=Late Summer Variations
TTITLE10=Salinas
TTITLE11=In The Wee Small Hours Of The Morning
EXTD=YEAR: 2009
EXTT0=
EXTT1=
EXTT2=
EXTT3=
EXTT4=
EXTT5=
EXTT6=
EXTT7=
EXTT8=
EXTT9=
EXTT10=
EXTT11=
PLAYORDER=
